<svg width="96" height="96" fill="none" xmlns="http://www.w3.org/2000/svg"><circle cx="48" cy="48" r="48" fill="#FCB72B"/><path d="M45.07 62.301a.833.833 0 0 0-.585.242.834.834 0 0 0-.242.585c0 .218.088.431.242.585a.833.833 0 0 0 .584.242c.218 0 .431-.088.585-.242a.832.832 0 0 0 .242-.585.834.834 0 0 0-.242-.584.834.834 0 0 0-.585-.243z" fill="#000"/><path fill-rule="evenodd" clip-rule="evenodd" d="m61.54 48.42-1.928-8.707c.52-.07.979-.335 1.301-.718.381.238.83.377 1.312.377h1.654c.456 0 .826-.37.826-.827v-3.308a.827.827 0 0 0-.826-.827h-1.654c-.496 0-.958.147-1.346.399a2.06 2.06 0 0 0-1.546-.699h-4.88c-.878 0-1.628.55-1.927 1.323h-1.96c-1.186 0-2.15.964-2.15 2.15 0 1.185.965 2.15 2.15 2.15h4.256v1.666a.827.827 0 1 0 1.654 0v-1.666h1.447l2.075 9.378-3.928 6.997a2.429 2.429 0 0 1-2.113 1.235h-9.806c-.411-3.443-3.346-6.122-6.898-6.122a6.878 6.878 0 0 0-4.287 1.48l-.005.004a6.905 6.905 0 0 0-2.607 4.638h-1.698c.108-5.945 4.977-10.747 10.946-10.747h5.866c.463 0 .84.377.84.84v7.426c0 .457.37.827.826.827h4.4a4.932 4.932 0 0 0 4.932-4.927l.004-2.747a.827.827 0 0 0-1.654-.003l-.004 2.748a3.279 3.279 0 0 1-3.278 3.274h-3.573v-6.598c0-.424-.106-.823-.293-1.173a2.482 2.482 0 0 0 1.244-2.15 2.484 2.484 0 0 0-2.48-2.48h-3.019c-.29 0-.568.05-.827.142v-7.253a2.483 2.483 0 0 0-2.48-2.48H34.77c-3.867 0-7.082 2.839-7.674 6.541a.829.829 0 0 0-.038.25v.015a7.79 7.79 0 0 0-.059.965v4.301c0 1.242.918 2.274 2.11 2.453l1.832 1.831A12.568 12.568 0 0 0 27 57.544v.625c0 .457.37.827.827.827h4.647a.849.849 0 0 0-.017.166c0 1.2.444 2.297 1.176 3.14h-5.806a.827.827 0 0 0 0 1.653h9.358c.023.002.045.003.068.003a4.801 4.801 0 0 0 4.796-4.796.841.841 0 0 0-.016-.166h11.924a4.085 4.085 0 0 0 3.281-1.656h1.047a4.773 4.773 0 0 0 .815 4.961H48.377a.827.827 0 0 0 0 1.654h14.248l.096.003a4.801 4.801 0 0 0 4.796-4.796 4.79 4.79 0 0 0-.36-1.822h1.352c.457 0 .827-.37.827-.827 0-4.365-3.47-7.934-7.797-8.094zm-18.127-5.133h3.018a.828.828 0 0 1 0 1.654h-3.018a.828.828 0 0 1 0-1.654zm-14.757-3.576-.002.102v4.301c0 .456.37.827.826.827h10.625a.828.828 0 0 0 .827-.827v-9.592a.828.828 0 0 0-.827-.826h-5.334a6.128 6.128 0 0 0-5.845 4.31h8.78a.827.827 0 1 1 0 1.654h-9.048l-.002.051zm2.821 6.884h1.892c-.397.227-.78.475-1.15.742l-.742-.742zm5.808 15.708a3.145 3.145 0 0 0 3.11-3.141c0-.057.006-.112.017-.166h-6.317c.01.054.016.11.016.166 0 1.7 1.358 3.089 3.047 3.14h.127zm-5.262-4.96a5.26 5.26 0 0 1 1.96-3.338L33.99 54a5.24 5.24 0 0 1 3.263-1.125 5.303 5.303 0 0 1 5.23 4.468h-10.46zm31.029-21.279h-.827a.828.828 0 0 0 0 1.654h.827v-1.654zM50.07 37.583c0-.274.222-.496.496-.496h1.822v.581c0 .14.014.278.04.411h-1.862a.497.497 0 0 1-.496-.496zm4.382.496h4.881c.227 0 .411-.184.411-.41v-1.494a.412.412 0 0 0-.41-.411h-4.882a.412.412 0 0 0-.41.41v1.494c0 .227.184.411.41.411zm11.411 21.083a3.145 3.145 0 0 1-3.11 3.14h-.014a.28.28 0 0 0-.018 0h-.095a3.145 3.145 0 0 1-3.047-3.14c0-.657.205-1.292.582-1.822h5.12c.377.53.582 1.165.582 1.822zm-4.507-9.092-3.153 5.616h9.426a6.454 6.454 0 0 0-6.273-5.616z" fill="#495567"/><path d="M55.649 45.534a.827.827 0 1 0 0-1.654h-.003a.826.826 0 1 0 .003 1.654z" fill="#000"/></svg>